<?xml version="1.0" standalone="no"?>
<!DOCTYPE svg PUBLIC "-//W3C//DTD SVG 20010904//EN"
 "http://www.w3.org/TR/2001/REC-SVG-20010904/DTD/svg10.dtd">
<svg version="1.0" xmlns="http://www.w3.org/2000/svg"
 width="512.000000pt" height="512.000000pt" viewBox="0 0 512.000000 512.000000"
 preserveAspectRatio="xMidYMid meet">
<metadata>
Created by potrace 1.14, written by Peter Selinger 2001-2017
</metadata>
<g transform="translate(0.000000,512.000000) scale(0.100000,-0.100000)"
fill="#000000" stroke="none">
<path d="M2505 5031 c-106 -34 -180 -143 -168 -246 6 -55 38 -119 79 -154 l34
-30 0 -191 c0 -145 -3 -190 -12 -191 -21 -1 -177 -21 -188 -24 -3 -1 -32 -7
-65 -14 -33 -8 -93 -24 -134 -37 -41 -13 -76 -22 -78 -21 -1 2 -27 62 -56 133
l-53 130 19 26 c41 55 37 149 -10 200 -102 113 -296 24 -276 -127 9 -64 76
-135 128 -135 19 0 30 -19 79 -135 31 -74 56 -136 56 -139 0 -2 -46 -29 -103
-60 -56 -31 -141 -85 -187 -120 l-85 -65 -136 135 c-129 129 -135 137 -133
172 2 47 -21 117 -52 159 -30 39 -119 84 -170 85 -62 0 -117 -19 -161 -57
-140 -120 -95 -344 81 -399 33 -11 69 -15 90 -12 35 6 39 2 166 -124 71 -71
130 -132 130 -135 0 -3 -22 -33 -48 -68 -66 -84 -120 -167 -166 -257 -21 -41
-40 -76 -41 -78 -5 -6 -260 102 -267 113 -4 5 -8 19 -8 31 0 12 -10 36 -23 54
-89 133 -287 74 -290 -86 0 -52 37 -115 83 -139 45 -23 112 -21 155 4 25 15
41 18 53 12 9 -6 69 -31 132 -56 l116 -47 -32 -112 c-32 -111 -38 -137 -50
-231 -4 -27 -8 -57 -10 -65 -1 -8 -3 -21 -3 -27 -1 -10 -46 -13 -189 -13
l-188 0 -30 31 c-90 97 -255 94 -342 -5 -81 -93 -82 -218 -1 -310 92 -104 257
-105 348 0 l30 34 185 0 184 0 6 -42 c3 -24 8 -63 11 -88 8 -58 38 -188 63
-267 l20 -62 -27 -10 c-14 -5 -74 -29 -134 -54 l-107 -44 -44 22 c-105 53
-230 -24 -228 -141 2 -133 152 -205 256 -123 31 24 55 68 58 103 2 26 11 31
182 101 48 20 89 35 91 33 1 -2 15 -28 30 -58 43 -87 95 -168 162 -256 l62
-81 -134 -133 -134 -133 -53 -2 c-95 -4 -167 -50 -204 -130 -95 -203 113 -409
313 -310 85 43 133 125 128 220 l-2 48 128 129 c71 70 132 128 136 128 4 0 32
-20 62 -44 74 -57 181 -126 259 -165 34 -17 62 -34 62 -37 0 -6 -50 -128 -97
-236 -12 -28 -22 -38 -38 -38 -30 0 -85 -39 -107 -75 -51 -89 -4 -207 92 -232
47 -12 85 -8 122 14 82 48 106 157 51 231 l-20 26 54 130 c30 72 55 131 56
132 1 1 54 -13 117 -31 110 -32 141 -38 240 -51 25 -3 54 -7 65 -9 11 -2 28
-4 38 -4 16 -1 17 -17 17 -191 l0 -190 -39 -36 c-96 -86 -98 -239 -6 -334 37
-37 112 -70 162 -70 84 0 163 48 209 125 49 84 29 210 -45 279 l-31 30 0 192
0 192 28 6 c15 3 50 8 77 11 66 8 198 39 275 65 34 12 64 19 66 18 2 -2 27
-62 57 -134 l54 -130 -19 -25 c-71 -94 -16 -227 102 -249 166 -30 252 192 110
287 -18 13 -43 23 -55 23 -20 0 -30 17 -73 119 -27 65 -53 128 -56 139 -6 17
6 27 81 67 91 49 187 113 259 172 23 18 44 33 47 33 4 0 66 -60 140 -133 l133
-132 -1 -50 c-6 -167 143 -280 309 -234 51 14 128 91 144 145 47 159 -69 318
-226 310 -40 -2 -44 1 -181 138 l-141 141 37 45 c53 66 136 196 173 270 18 36
34 67 36 69 5 5 258 -102 266 -114 4 -5 8 -19 8 -31 0 -30 39 -85 75 -105 127
-73 277 48 230 185 -24 70 -77 108 -151 108 -27 0 -58 -8 -79 -20 l-34 -21
-73 30 c-40 17 -91 39 -113 48 -22 10 -50 21 -61 25 -21 6 -21 8 -7 54 26 82
62 235 69 292 10 78 11 93 13 108 1 9 47 12 196 12 l196 0 32 -37 c41 -47 102
-74 169 -74 161 -2 273 148 226 302 -48 163 -275 215 -392 90 l-30 -31 -197 0
-198 0 -6 48 c-5 42 -15 100 -20 127 -2 6 -8 36 -14 67 -7 31 -23 90 -35 132
l-23 75 31 11 c17 7 40 16 51 21 11 5 57 24 103 43 l83 35 34 -21 c21 -12 52
-20 79 -20 191 0 219 270 32 312 -90 20 -167 -36 -190 -140 -5 -21 -25 -33
-137 -78 -72 -29 -132 -52 -134 -50 -1 2 -20 37 -41 78 -45 87 -100 172 -161
251 -23 30 -43 58 -43 62 0 4 60 67 133 140 l132 132 66 2 c73 1 107 15 157
63 92 87 96 227 11 324 -41 48 -82 67 -156 73 -54 5 -70 2 -118 -22 -79 -38
-126 -109 -130 -195 l-2 -62 -138 -138 -138 -139 -61 48 c-86 67 -139 102
-231 151 -44 24 -84 46 -88 50 -8 7 8 53 54 158 11 24 27 61 35 82 12 30 22
40 39 40 62 0 136 95 129 166 -15 157 -228 202 -300 63 -28 -54 -13 -160 25
-184 6 -3 -5 -41 -25 -88 -20 -45 -45 -106 -56 -135 -16 -42 -24 -52 -36 -47
-36 14 -222 64 -258 69 -22 4 -52 9 -69 11 -16 3 -46 7 -65 9 l-35 3 -3 193
-2 194 34 35 c52 56 69 97 69 173 0 144 -162 264 -298 219z"/>
</g>
</svg>
